<svg width="21" height="16" viewBox="0 0 21 16" fill="none" xmlns="http://www.w3.org/2000/svg">
<path d="M14.6475 15.9728H3.07129C2.4517 15.9722 1.85767 15.7258 1.41955 15.2877C0.981439 14.8495 0.735021 14.2555 0.734375 13.6359V6.72723C0.735021 6.10764 0.981439 5.51362 1.41955 5.0755C1.85767 4.63738 2.4517 4.39097 3.07129 4.39032H14.6475C15.2671 4.39097 15.8611 4.63738 16.2992 5.0755C16.7373 5.51362 16.9837 6.10764 16.9844 6.72723V13.6359C16.9837 14.2555 16.7373 14.8495 16.2992 15.2877C15.8611 15.7258 15.2671 15.9722 14.6475 15.9728ZM3.07129 5.85516C2.84008 5.85542 2.61842 5.94738 2.45493 6.11087C2.29144 6.27436 2.19948 6.49603 2.19922 6.72723V13.6359C2.19948 13.8671 2.29144 14.0888 2.45493 14.2523C2.61842 14.4158 2.84008 14.5077 3.07129 14.508H14.6475C14.8787 14.5077 15.1003 14.4158 15.2638 14.2523C15.4273 14.0888 15.5193 13.8671 15.5195 13.6359V6.72723C15.5193 6.49603 15.4273 6.27436 15.2638 6.11087C15.1003 5.94738 14.8787 5.85542 14.6475 5.85516H3.07129Z" fill="#FFBB38"/>
<path d="M17.9297 12.0286H16.2519C16.0577 12.0286 15.8714 11.9514 15.734 11.814C15.5967 11.6767 15.5195 11.4904 15.5195 11.2961C15.5195 11.1019 15.5967 10.9156 15.734 10.7782C15.8714 10.6409 16.0577 10.5637 16.2519 10.5637H17.9297C18.1607 10.5632 18.3821 10.4711 18.5454 10.3077C18.7087 10.1442 18.8005 9.92269 18.8008 9.69165V2.78296C18.8006 2.55183 18.7089 2.33019 18.5456 2.16663C18.3823 2.00306 18.1608 1.91092 17.9297 1.9104H6.35349C6.12228 1.91066 5.90061 2.00262 5.73712 2.16611C5.57363 2.3296 5.48167 2.55126 5.48141 2.78247V5.12231C5.48141 5.31656 5.40425 5.50286 5.26689 5.64021C5.12954 5.77757 4.94324 5.85474 4.74899 5.85474C4.55474 5.85474 4.36845 5.77757 4.23109 5.64021C4.09374 5.50286 4.01657 5.31656 4.01657 5.12231V2.78296C4.01709 2.16328 4.26345 1.56913 4.70158 1.13091C5.13971 0.692688 5.73381 0.446203 6.35349 0.445557H17.9297C18.5492 0.446462 19.143 0.693061 19.5809 1.13125C20.0189 1.56945 20.2651 2.16345 20.2656 2.78296V9.69165C20.2649 10.3111 20.0187 10.905 19.5808 11.343C19.1429 11.7811 18.5491 12.0277 17.9297 12.0286Z" fill="#FFBB38"/>
<path d="M16.252 10.738H1.4668C1.27255 10.738 1.08625 10.6609 0.948896 10.5235C0.811541 10.3862 0.734375 10.1999 0.734375 10.0056V7.54565C0.734375 7.3514 0.811541 7.16511 0.948896 7.02775C1.08625 6.8904 1.27255 6.81323 1.4668 6.81323H16.252C16.4462 6.81323 16.6325 6.8904 16.7699 7.02775C16.9072 7.16511 16.9844 7.3514 16.9844 7.54565V10.0056C16.9844 10.1999 16.9072 10.3862 16.7699 10.5235C16.6325 10.6609 16.4462 10.738 16.252 10.738ZM2.19922 9.2732H15.5195V8.27808H2.19922V9.2732Z" fill="#FFBB38"/>
</svg>
