<svg width="18" height="18" viewBox="0 0 18 18" fill="none" xmlns="http://www.w3.org/2000/svg">
<path d="M9.00012 7.1281C9.35446 7.1281 9.64385 7.41674 9.64385 7.77109C9.64385 8.09443 9.90666 8.3565 10.23 8.3565C10.5526 8.3565 10.8154 8.09443 10.8154 7.77109C10.8154 6.97676 10.2979 6.30645 9.58553 6.06136V5.72916C9.58553 5.40656 9.32346 5.14301 9.00012 5.14301C8.67603 5.14301 8.41396 5.40656 8.41396 5.72916V6.06136C7.70158 6.30645 7.18556 6.97676 7.18556 7.77109C7.18556 8.77286 7.99908 9.58639 9.00012 9.58639C9.35446 9.58639 9.64385 9.87577 9.64385 10.2301C9.64385 10.5852 9.35446 10.8739 9.00012 10.8739C8.64577 10.8739 8.35712 10.5852 8.35712 10.2301C8.35712 9.90678 8.09431 9.64397 7.77097 9.64397C7.44689 9.64397 7.18556 9.90678 7.18556 10.2301C7.18556 11.0244 7.70158 11.694 8.41396 11.9391V12.2713C8.41396 12.5954 8.67603 12.8582 9.00012 12.8582C9.32346 12.8582 9.58553 12.5954 9.58553 12.2713V11.9391C10.2979 11.694 10.8154 11.0244 10.8154 10.2301C10.8154 9.22909 10.0011 8.41482 9.00012 8.41482C8.64577 8.41482 8.35712 8.12618 8.35712 7.77109C8.35712 7.41674 8.64577 7.1281 9.00012 7.1281ZM13.9086 12.2536C14.1957 12.4049 14.5494 12.2949 14.7 12.01C15.1872 11.0894 15.4441 10.0485 15.4441 9.00024C15.4441 5.4479 12.5525 2.55701 9.00012 2.55701C5.44704 2.55701 2.55615 5.4479 2.55615 9.00024C2.55615 12.5533 5.44704 15.4442 9.00012 15.4442C10.0329 15.4442 11.059 15.1947 11.9678 14.7215C12.255 14.5731 12.3664 14.218 12.2173 13.9316C12.0682 13.6459 11.7146 13.5322 11.4267 13.6821C10.6744 14.0748 9.85719 14.2734 9.00012 14.2734C6.09298 14.2734 3.72697 11.9081 3.72697 9.00024C3.72697 6.09384 6.09298 3.72783 9.00012 3.72783C11.9072 3.72783 14.2733 6.09384 14.2733 9.00024C14.2733 9.85879 14.0621 10.71 13.665 11.4615C13.5129 11.7479 13.6221 12.1023 13.9086 12.2536ZM9.00012 0.212402C7.30294 0.212402 5.65522 0.698155 4.23561 1.61577C3.9632 1.79147 3.88569 2.15393 4.06139 2.4256C4.23782 2.69727 4.59882 2.77404 4.87196 2.59982C6.10037 1.80549 7.52957 1.3847 9.00012 1.3847C13.1999 1.3847 16.6156 4.80121 16.6156 9.00024C16.6156 13.2 13.1999 16.6165 9.00012 16.6165C4.80035 16.6165 1.38384 13.2 1.38384 9.00024C1.38384 7.54372 1.79651 6.12706 2.57829 4.9053C2.75251 4.63216 2.67279 4.26969 2.39964 4.09547C2.12724 3.92125 1.76477 4.00097 1.59129 4.27338C0.689174 5.68413 0.21228 7.32004 0.21228 9.00024C0.21228 13.8467 4.15367 17.7881 9.00012 17.7881C13.8458 17.7881 17.788 13.8467 17.788 9.00024C17.788 4.15526 13.8458 0.212402 9.00012 0.212402Z" fill="#16DBCC"/>
</svg>
