<svg width="15" height="18" viewBox="0 0 15 18" fill="none" xmlns="http://www.w3.org/2000/svg">
<path d="M13.425 4.98773C13.4151 3.89468 12.9744 2.84966 12.1985 2.07965C11.4227 1.30964 10.3744 0.876837 9.28126 0.875235H3.25001C3.10021 0.873307 2.95469 0.925255 2.83998 1.02162C2.72526 1.11798 2.64897 1.25234 2.62501 1.40023L0.487515 14.8065C0.47416 14.8953 0.480087 14.9859 0.504892 15.0722C0.529698 15.1584 0.5728 15.2384 0.631265 15.3065C0.689352 15.3762 0.761934 15.4325 0.843964 15.4713C0.925993 15.5102 1.0155 15.5307 1.10626 15.5315H3.68751L3.55001 16.4002C3.53541 16.4903 3.5407 16.5824 3.5655 16.6702C3.5903 16.758 3.63401 16.8393 3.69357 16.9084C3.75313 16.9775 3.8271 17.0327 3.91027 17.0701C3.99344 17.1076 4.0838 17.1264 4.17501 17.1252H7.08126C7.23016 17.1274 7.37493 17.0763 7.48952 16.9812C7.6041 16.8861 7.68096 16.7532 7.70626 16.6065L8.33126 12.7877H10.3C11.5323 12.7828 12.7124 12.2902 13.5826 11.4177C14.4527 10.5452 14.9421 9.36373 14.9438 8.13148V7.95648C14.9431 7.37685 14.8052 6.80561 14.5412 6.28958C14.2772 5.77355 13.8947 5.32742 13.425 4.98773ZM3.78126 2.12523H9.28126C9.93698 2.12725 10.5727 2.35143 11.0846 2.76119C11.5965 3.17096 11.9545 3.74212 12.1 4.38148C11.8296 4.31807 11.5527 4.28661 11.275 4.28773H6.06251C5.91271 4.28581 5.76719 4.33776 5.65247 4.43412C5.53776 4.53048 5.46147 4.66484 5.43751 4.81274L5.06876 7.12524C5.04224 7.291 5.08265 7.4605 5.18111 7.59647C5.27957 7.73243 5.428 7.82371 5.59376 7.85023C5.75952 7.87676 5.92903 7.83634 6.065 7.73789C6.20096 7.63943 6.29224 7.49099 6.31876 7.32523L6.60626 5.52523H11.2875C11.5871 5.52681 11.8838 5.58403 12.1625 5.69398C12.0437 6.67239 11.5716 7.57372 10.8351 8.22859C10.0985 8.88345 9.1481 9.24676 8.16251 9.25023H5.26251C5.11362 9.24807 4.96884 9.29914 4.85426 9.39424C4.73968 9.48935 4.66281 9.62224 4.63751 9.76898L3.87501 14.2815H1.83751L3.78126 2.12523ZM13.6938 8.13148C13.6921 9.03221 13.3344 9.89577 12.6987 10.5338C12.063 11.1719 11.2007 11.5328 10.3 11.5377H7.80001C7.65112 11.5356 7.50634 11.5866 7.39176 11.6817C7.27718 11.7768 7.20031 11.9097 7.17501 12.0565L6.55001 15.8752H4.90001L5.03751 15.0065L5.78751 10.5127H8.15001C9.3168 10.5093 10.4497 10.12 11.3722 9.40557C12.2946 8.69111 12.9549 7.69158 13.25 6.56274C13.5401 6.96945 13.6953 7.45692 13.6938 7.95648V8.13148Z" fill="#396AFF"/>
</svg>
